<svg width="923" height="664" viewBox="0 0 923 664" fill="none" xmlns="http://www.w3.org/2000/svg">
<rect x="80.5" y="160.5" width="842" height="503" fill="black" stroke="white"/>
<rect x="60.5" y="120.5" width="842" height="503" fill="black" stroke="white"/>
<rect x="40.5" y="80.5" width="842" height="503" fill="black" stroke="white"/>
<rect x="20.5" y="40.5" width="842" height="503" fill="black" stroke="white"/>
<rect x="0.5" y="0.5" width="842" height="503" fill="black" stroke="white"/>
<g opacity="0.67">
<path d="M707.755 15.3039C700.711 15.3039 695 21.0146 695 28.0592C695 35.1038 700.711 40.8145 707.755 40.8145C714.8 40.8145 720.511 35.1038 720.511 28.0592C720.511 21.0146 714.8 15.3039 707.755 15.3039ZM714.225 29.4387C714.82 30.0194 715.449 30.5659 715.983 31.2066C716.219 31.49 716.442 31.7831 716.612 32.1127C716.854 32.5827 716.635 33.0982 716.214 33.1261L713.601 33.1256C712.926 33.1814 712.389 32.9092 711.936 32.4478C711.575 32.0801 711.24 31.6873 710.891 31.3071C710.749 31.151 710.599 31.0041 710.421 30.8885C710.065 30.6567 709.755 30.7277 709.551 31.0999C709.343 31.4785 709.296 31.8982 709.276 32.3197C709.247 32.9358 709.061 33.0969 708.443 33.1258C707.122 33.1877 705.869 32.9872 704.704 32.3212C703.676 31.7338 702.88 30.9046 702.187 29.9659C700.838 28.1359 699.804 26.1274 698.875 24.0613C698.666 23.596 698.819 23.347 699.332 23.3373C700.185 23.3209 701.038 23.323 701.891 23.3365C702.238 23.342 702.468 23.5406 702.601 23.8682C703.062 25.0021 703.627 26.081 704.335 27.0816C704.524 27.348 704.716 27.6137 704.991 27.8019C705.293 28.0096 705.524 27.941 705.667 27.603C705.758 27.3882 705.797 27.1586 705.817 26.9284C705.885 26.14 705.893 25.3518 705.776 24.5665C705.703 24.0751 705.426 23.7578 704.936 23.6648C704.687 23.6176 704.724 23.5252 704.845 23.3827C705.055 23.1364 705.253 22.984 705.647 22.984L708.6 22.9834C709.065 23.0748 709.169 23.2836 709.232 23.7523L709.235 27.0333C709.23 27.2147 709.326 27.7523 709.652 27.871C709.913 27.9572 710.085 27.7479 710.241 27.5827C710.949 26.8313 711.454 25.9445 711.905 25.0266C712.105 24.6219 712.277 24.203 712.444 23.7833C712.568 23.473 712.761 23.3204 713.111 23.3256L715.954 23.329C716.038 23.329 716.123 23.3298 716.206 23.3441C716.685 23.4261 716.817 23.6322 716.668 24.0996C716.435 24.834 715.982 25.4458 715.539 26.0591C715.064 26.7157 714.557 27.3493 714.087 28.0088C713.655 28.6117 713.689 28.9152 714.225 29.4387Z" fill="#CACACA"/>
<path d="M790.56 15.355C783.545 15.355 777.805 21.1052 777.805 28.1872C777.805 34.5905 782.473 39.9052 788.571 40.8657V31.9011H785.331V28.1872H788.571V25.357C788.571 22.1425 790.471 20.3752 793.392 20.3752C794.782 20.3752 796.236 20.6185 796.236 20.6185V23.7817H794.629C793.048 23.7817 792.55 24.7678 792.55 25.7796V28.1872H796.096L795.522 31.9011H792.55V40.8657C795.556 40.3891 798.293 38.8493 800.267 36.5243C802.241 34.1994 803.322 31.2424 803.316 28.1872C803.316 21.1052 797.576 15.355 790.56 15.355Z" fill="#CACACA"/>
<g clip-path="url(#clip0_13_2)">
<path d="M746.716 28.0592C746.716 29.4076 747.809 30.5007 749.158 30.5007C750.506 30.5007 751.599 29.4076 751.599 28.0592C751.599 26.7108 750.506 25.6178 749.158 25.6178C747.809 25.6178 746.716 26.7108 746.716 28.0592Z" fill="#CACACA"/>
<path d="M743.448 23.7395C743.565 23.4215 743.753 23.1336 743.996 22.8973C744.232 22.6541 744.52 22.4668 744.838 22.3495C745.096 22.2492 745.484 22.1299 746.198 22.0974C746.97 22.0622 747.202 22.0546 749.158 22.0546C751.114 22.0546 751.345 22.062 752.117 22.0972C752.832 22.1299 753.219 22.2492 753.477 22.3495C753.796 22.4668 754.083 22.6541 754.32 22.8973C754.563 23.1336 754.75 23.4213 754.868 23.7395C754.968 23.9976 755.087 24.3855 755.12 25.0996C755.155 25.8719 755.162 26.1035 755.162 28.0593C755.162 30.015 755.155 30.2466 755.12 31.0191C755.087 31.7332 754.968 32.1209 754.868 32.379C754.75 32.6972 754.563 32.9849 754.32 33.2211C754.083 33.4644 753.796 33.6517 753.478 33.769C753.219 33.8694 752.832 33.9888 752.117 34.0213C751.345 34.0565 751.114 34.0639 749.158 34.0639C747.202 34.0639 746.97 34.0565 746.198 34.0213C745.484 33.9888 745.096 33.8694 744.838 33.769C744.199 33.5226 743.694 33.0177 743.448 32.379C743.348 32.1209 743.229 31.7332 743.196 31.0191C743.161 30.2466 743.153 30.015 743.153 28.0593C743.153 26.1035 743.161 25.8719 743.196 25.0996C743.228 24.3855 743.348 23.9976 743.448 23.7395ZM749.158 31.8202C751.235 31.8202 752.919 30.1364 752.919 28.0591C752.919 25.9819 751.235 24.2981 749.158 24.2981C747.081 24.2981 745.397 25.9819 745.397 28.0591C745.397 30.1364 747.081 31.8202 749.158 31.8202ZM745.248 25.0284C745.733 25.0284 746.127 24.6348 746.127 24.1494C746.127 23.664 745.733 23.2705 745.248 23.2705C744.763 23.2705 744.369 23.664 744.369 24.1494C744.369 24.6348 744.763 25.0284 745.248 25.0284Z" fill="#CACACA"/>
<path d="M749.158 15.3039C756.201 15.3039 761.913 21.0157 761.913 28.0592C761.913 35.1027 756.201 40.8145 749.158 40.8145C742.114 40.8145 736.402 35.1027 736.402 28.0592C736.402 21.0157 742.114 15.3039 749.158 15.3039ZM741.878 31.0789C741.913 31.8586 742.037 32.3909 742.218 32.8568C742.599 33.8407 743.376 34.6184 744.36 34.9989C744.826 35.1799 745.358 35.3037 746.138 35.3393C746.919 35.375 747.168 35.3835 749.158 35.3835C751.147 35.3835 751.396 35.375 752.177 35.3393C752.957 35.3037 753.489 35.1799 753.955 34.9989C754.444 34.815 754.887 34.5268 755.253 34.1541C755.625 33.7883 755.913 33.3456 756.097 32.8568C756.278 32.3911 756.402 31.8586 756.438 31.0791C756.474 30.2978 756.482 30.0483 756.482 28.0592C756.482 26.0701 756.474 25.8206 756.438 25.0395C756.403 24.2598 756.279 23.7275 756.098 23.2616C755.914 22.7728 755.625 22.3301 755.253 21.9643C754.887 21.5916 754.444 21.3034 753.955 21.1195C753.489 20.9384 752.957 20.8147 752.177 20.779C751.396 20.7434 751.147 20.7349 749.158 20.7349C747.169 20.7349 746.919 20.7434 746.138 20.7792C745.358 20.8147 744.826 20.9384 744.36 21.1193C743.871 21.3032 743.429 21.5916 743.063 21.9643C742.69 22.3302 742.402 22.7728 742.218 23.2616C742.037 23.7275 741.913 24.2598 741.877 25.0395C741.842 25.8206 741.833 26.0701 741.833 28.0592C741.833 30.0483 741.842 30.2978 741.878 31.0789Z" fill="#CACACA"/>
</g>
</g>
<path d="M40.72 26.6V20.6L44.56 18.2H50.08V35H43.84V24.68L40.72 26.6ZM52.3713 35V30.08L58.1313 27.08C59.7473 26.248 60.7713 25.656 61.2033 25.304C61.6353 24.936 61.8513 24.528 61.8513 24.08C61.8513 23.728 61.6993 23.424 61.3953 23.168C61.1073 22.896 60.6993 22.76 60.1713 22.76C59.4673 22.76 58.9393 23 58.5872 23.48C58.4433 23.672 58.3313 23.912 58.2513 24.2H52.2513C52.4753 23 52.9073 21.92 53.5473 20.96C55.0353 18.8 57.3233 17.72 60.4113 17.72C62.7793 17.72 64.6513 18.296 66.0273 19.448C67.4033 20.584 68.0913 21.968 68.0913 23.6C68.0913 24.336 67.9393 25.032 67.6353 25.688C67.3313 26.344 66.9633 26.888 66.5312 27.32C66.1153 27.736 65.6273 28.12 65.0673 28.472C64.5073 28.824 64.0353 29.088 63.6512 29.264C63.2833 29.424 62.9153 29.568 62.5473 29.696L62.0913 29.84L61.6113 29.96L61.2513 30.08V30.344L62.9313 30.08H68.0913V35H52.3713ZM69.7619 32.72C69.7619 32 70.0179 31.384 70.5299 30.872C71.0579 30.344 71.6819 30.08 72.4019 30.08C73.1059 30.08 73.7219 30.344 74.2499 30.872C74.7779 31.4 75.0419 32.016 75.0419 32.72C75.0419 33.44 74.7779 34.064 74.2499 34.592C73.7379 35.104 73.1219 35.36 72.4019 35.36C71.6659 35.36 71.0419 35.104 70.5299 34.592C70.0179 34.08 69.7619 33.456 69.7619 32.72ZM69.7619 24.56C69.7619 23.84 70.0179 23.224 70.5299 22.712C71.0579 22.184 71.6819 21.92 72.4019 21.92C73.1059 21.92 73.7219 22.184 74.2499 22.712C74.7779 23.24 75.0419 23.856 75.0419 24.56C75.0419 25.28 74.7779 25.904 74.2499 26.432C73.7379 26.944 73.1219 27.2 72.4019 27.2C71.6659 27.2 71.0419 26.944 70.5299 26.432C70.0179 25.92 69.7619 25.296 69.7619 24.56ZM76.7228 35V30.08L82.4828 27.08C84.0988 26.248 85.1228 25.656 85.5548 25.304C85.9868 24.936 86.2028 24.528 86.2028 24.08C86.2028 23.728 86.0508 23.424 85.7468 23.168C85.4588 22.896 85.0508 22.76 84.5228 22.76C83.8188 22.76 83.2908 23 82.9388 23.48C82.7948 23.672 82.6828 23.912 82.6028 24.2H76.6028C76.8268 23 77.2588 21.92 77.8988 20.96C79.3868 18.8 81.6748 17.72 84.7628 17.72C87.1308 17.72 89.0028 18.296 90.3788 19.448C91.7548 20.584 92.4428 21.968 92.4428 23.6C92.4428 24.336 92.2908 25.032 91.9868 25.688C91.6828 26.344 91.3148 26.888 90.8828 27.32C90.4668 27.736 89.9788 28.12 89.4188 28.472C88.8588 28.824 88.3868 29.088 88.0028 29.264C87.6348 29.424 87.2668 29.568 86.8988 29.696L86.4428 29.84L85.9628 29.96L85.6028 30.08V30.344L87.2828 30.08H92.4428V35H76.7228ZM93.9934 26.6V20.6L97.8334 18.2H103.353V35H97.1134V24.68L93.9934 26.6Z" fill="white"/>
<defs>
<clipPath id="clip0_13_2">
<rect width="25.5106" height="25.5106" fill="white" transform="matrix(-1 0 0 1 761.913 15.3039)"/>
</clipPath>
</defs>
</svg>
