<svg width="249" height="59" viewBox="0 0 249 59" fill="none" xmlns="http://www.w3.org/2000/svg">
<g opacity="0.67">
<path d="M29.2223 0C13.0838 0 0 13.0832 0 29.2223C0 45.3614 13.0838 58.4446 29.2223 58.4446C45.3608 58.4446 58.4446 45.3614 58.4446 29.2223C58.4446 13.0832 45.3608 0 29.2223 0ZM44.0454 32.3828C45.4074 33.7131 46.8483 34.9651 48.071 36.4329C48.6127 37.0823 49.1233 37.7537 49.512 38.5088C50.0668 39.5857 49.5658 40.7665 48.602 40.8305L42.6152 40.8293C41.069 40.9572 39.8386 40.3336 38.8012 39.2765C37.9731 38.4341 37.2048 37.5343 36.4072 36.6631C36.0814 36.3056 35.7382 35.969 35.3292 35.7041C34.5131 35.1732 33.804 35.3358 33.3364 36.1884C32.8599 37.056 32.7511 38.0174 32.7056 38.983C32.6405 40.3946 32.2148 40.7635 30.7983 40.8299C27.7718 40.9716 24.9001 40.5124 22.2311 38.9866C19.8765 37.6407 18.0541 35.7412 16.4661 33.5905C13.3738 29.3981 11.0055 24.7966 8.8776 20.0631C8.39868 18.997 8.74905 18.4266 9.92511 18.4045C11.879 18.3668 13.833 18.3716 15.7869 18.4027C16.5821 18.4153 17.1083 18.8703 17.4138 19.6206C18.4697 22.2185 19.7641 24.6902 21.3862 26.9826C21.8185 27.593 22.2598 28.2017 22.8881 28.6328C23.5817 29.1087 24.1103 28.9514 24.4373 28.1772C24.6466 27.6851 24.7369 27.1589 24.7823 26.6316C24.9377 24.8253 24.9563 23.0197 24.6872 21.2206C24.5198 20.0948 23.8866 19.3677 22.7644 19.1549C22.1928 19.0467 22.2765 18.835 22.5545 18.5085C23.037 17.9441 23.489 17.595 24.3925 17.595L31.1565 17.5938C32.2225 17.803 32.4617 18.2813 32.6064 19.3552L32.6124 26.8719C32.5998 27.2875 32.821 28.5192 33.5672 28.7912C34.1651 28.9885 34.5597 28.509 34.9173 28.1305C36.5394 26.4092 37.6951 24.3775 38.7301 22.2747C39.1869 21.3474 39.5809 20.3877 39.9635 19.4263C40.2481 18.7154 40.6906 18.3656 41.493 18.3776L48.0065 18.3854C48.1984 18.3854 48.3933 18.3872 48.5834 18.4201C49.6812 18.6078 49.9819 19.0801 49.6423 20.151C49.1078 21.8335 48.0692 23.2349 47.054 24.64C45.9658 26.1443 44.8053 27.596 43.7279 29.1069C42.7378 30.488 42.8161 31.1834 44.0454 32.3828Z" fill="#CACACA"/>
<path d="M218.928 0.117188C202.856 0.117188 189.706 13.2907 189.706 29.5155C189.706 44.1853 200.401 56.3613 214.369 58.5618V38.024H206.947V29.5155H214.369V23.0315C214.369 15.6672 218.723 11.6183 225.415 11.6183C228.6 11.6183 231.932 12.1758 231.932 12.1758V19.4227H228.25C224.626 19.4227 223.486 21.6818 223.486 23.9997V29.5155H231.61L230.295 38.024H223.486V58.5618C230.373 57.4699 236.643 53.9423 241.166 48.6158C245.689 43.2893 248.166 36.5149 248.15 29.5155C248.15 13.2907 235 0.117188 218.928 0.117188Z" fill="#CACACA"/>
<g clip-path="url(#clip0_8_16)">
<path d="M118.482 29.2223C118.482 32.3115 120.986 34.8156 124.075 34.8156C127.164 34.8156 129.668 32.3115 129.668 29.2223C129.668 26.1331 127.164 23.629 124.075 23.629C120.986 23.629 118.482 26.1331 118.482 29.2223Z" fill="#CACACA"/>
<path d="M110.994 19.3259C111.263 18.5974 111.692 17.9379 112.249 17.3966C112.791 16.8392 113.45 16.4102 114.179 16.1414C114.77 15.9117 115.658 15.6384 117.294 15.5639C119.064 15.4832 119.594 15.4658 124.075 15.4658C128.556 15.4658 129.086 15.4828 130.856 15.5635C132.492 15.6384 133.38 15.9117 133.971 16.1414C134.7 16.4102 135.36 16.8392 135.9 17.3966C136.458 17.9379 136.887 18.5969 137.156 19.3259C137.386 19.9172 137.659 20.8059 137.734 22.4419C137.814 24.2112 137.832 24.7418 137.832 29.2226C137.832 33.703 137.814 34.2336 137.734 36.0034C137.659 37.6394 137.386 38.5276 137.156 39.1189C136.887 39.8479 136.458 40.5069 135.901 41.0483C135.36 41.6056 134.701 42.0346 133.972 42.3035C133.38 42.5335 132.492 42.8069 130.856 42.8813C129.086 42.962 128.556 42.979 124.075 42.979C119.594 42.979 119.063 42.962 117.295 42.8813C115.659 42.8069 114.77 42.5335 114.179 42.3035C112.715 41.739 111.559 40.5823 110.994 39.1189C110.764 38.5276 110.491 37.6394 110.416 36.0034C110.335 34.2336 110.319 33.703 110.319 29.2226C110.319 24.7418 110.335 24.2112 110.416 22.4419C110.491 20.8059 110.764 19.9172 110.994 19.3259ZM124.075 37.8387C128.834 37.8387 132.692 33.9812 132.692 29.2222C132.692 24.4631 128.834 20.6057 124.075 20.6057C119.316 20.6057 115.458 24.4631 115.458 29.2222C115.458 33.9812 119.316 37.8387 124.075 37.8387ZM115.118 22.2787C116.23 22.2787 117.131 21.3771 117.131 20.265C117.131 19.1529 116.23 18.2513 115.118 18.2513C114.006 18.2513 113.104 19.1529 113.104 20.265C113.104 21.3771 114.006 22.2787 115.118 22.2787Z" fill="#CACACA"/>
<path d="M124.075 0C140.212 0 153.297 13.0857 153.297 29.2223C153.297 45.3588 140.212 58.4446 124.075 58.4446C107.938 58.4446 94.8527 45.3588 94.8527 29.2223C94.8527 13.0857 107.938 0 124.075 0ZM107.396 36.1404C107.477 37.9266 107.761 39.1462 108.176 40.2136C109.048 42.4676 110.83 44.2494 113.084 45.1212C114.151 45.5359 115.371 45.8195 117.156 45.9011C118.946 45.9826 119.517 46.0023 124.075 46.0023C128.632 46.0023 129.203 45.9826 130.993 45.9011C132.779 45.8195 133.999 45.5359 135.066 45.1212C136.186 44.6998 137.2 44.0394 138.038 43.1855C138.892 42.3477 139.552 41.3333 139.973 40.2136C140.388 39.1466 140.672 37.9266 140.753 36.1408C140.836 34.351 140.855 33.7794 140.855 29.2223C140.855 24.6652 140.836 24.0936 140.754 22.3042C140.673 20.5179 140.389 19.2984 139.974 18.2309C139.553 17.1113 138.892 16.0969 138.038 15.259C137.2 14.4051 136.186 13.7448 135.066 13.3234C133.999 12.9087 132.779 12.6251 130.993 12.5435C129.204 12.4619 128.632 12.4423 124.075 12.4423C119.518 12.4423 118.946 12.4619 117.157 12.544C115.371 12.6251 114.151 12.9087 113.084 13.3229C111.964 13.7443 110.95 14.4051 110.111 15.259C109.258 16.0973 108.597 17.1113 108.176 18.2309C107.761 19.2984 107.477 20.5179 107.396 22.3042C107.314 24.0936 107.295 24.6652 107.295 29.2223C107.295 33.7794 107.314 34.351 107.396 36.1404Z" fill="#CACACA"/>
</g>
</g>
<defs>
<clipPath id="clip0_8_16">
<rect width="58.4446" height="58.4446" fill="white" transform="matrix(-1 0 0 1 153.297 0)"/>
</clipPath>
</defs>
</svg>
